<?xml version="1.0" standalone="no"?>
<!DOCTYPE svg PUBLIC "-//W3C//DTD SVG 20010904//EN"
 "http://www.w3.org/TR/2001/REC-SVG-20010904/DTD/svg10.dtd">
<svg version="1.0" xmlns="http://www.w3.org/2000/svg"
 width="700.000000pt" height="700.000000pt" viewBox="0 0 700.000000 700.000000"
 preserveAspectRatio="xMidYMid meet">
<metadata>
Created by potrace 1.14, written by Peter Selinger 2001-2017
</metadata>
<g transform="translate(0.000000,700.000000) scale(0.100000,-0.100000)"
fill="#000000" stroke="none">
<path d="M787 6234 c-1 -1 -33 -4 -72 -8 -71 -6 -224 -39 -260 -55 -11 -5 -51
-24 -90 -42 -177 -81 -290 -219 -340 -414 -17 -66 -19 -148 -19 -1345 0 -1146
3 -1390 20 -1525 15 -125 37 -269 50 -335 84 -416 231 -824 428 -1190 29 -52
60 -115 71 -140 21 -51 92 -162 127 -201 78 -84 204 -158 327 -191 75 -20 98
-20 1716 -22 902 0 1663 2 1690 6 131 17 220 51 320 123 105 74 165 156 265
360 117 238 175 386 262 665 26 86 81 289 92 344 3 11 7 30 10 41 18 73 56
272 56 291 0 22 1 22 33 10 127 -53 305 -58 435 -12 144 50 239 125 339 266
308 435 529 830 650 1160 40 109 35 93 68 230 25 107 35 274 21 367 -53 364
-302 665 -649 783 -113 38 -132 41 -287 46 -224 6 -396 -45 -529 -157 -70 -58
-71 -59 -72 -32 -3 101 -7 186 -13 238 -3 33 -9 83 -12 110 -10 93 -41 179
-105 295 -68 122 -188 224 -328 280 -141 55 -26 53 -2199 54 -1102 0 -2004 0
-2005 0z m2403 -1230 c19 -3 46 -8 60 -10 57 -10 158 -49 197 -76 55 -37 93
-102 93 -157 0 -49 -36 -124 -125 -261 -189 -291 -487 -587 -820 -815 -86 -59
-175 -121 -210 -147 -346 -260 -568 -493 -809 -850 -28 -42 -86 -65 -132 -54
-43 11 -108 86 -133 155 -43 117 -60 243 -56 406 2 83 5 159 8 170 2 11 8 40
12 65 44 276 212 625 423 880 48 57 223 235 279 282 264 224 613 385 905 416
80 9 252 7 308 -4z m3033 -173 c180 -63 303 -210 335 -401 15 -86 3 -178 -40
-299 -31 -89 -117 -268 -162 -340 -14 -22 -26 -43 -26 -46 0 -11 -267 -399
-319 -465 -62 -77 -75 -92 -124 -141 -91 -90 -180 -123 -253 -93 -68 28 -150
160 -174 279 -9 42 -12 205 -12 556 0 559 0 559 72 667 82 122 259 248 414
294 77 23 206 18 289 -11z m-2324 -317 c38 -27 110 -207 125 -314 3 -19 8 -57
12 -85 11 -74 8 -239 -6 -330 -130 -883 -984 -1672 -1785 -1650 -71 2 -141 6
-155 9 -14 3 -38 9 -55 12 -178 39 -280 206 -209 341 87 163 244 363 430 548
140 139 251 232 544 457 102 78 187 144 190 147 3 4 34 31 70 61 312 264 542
506 691 726 65 97 97 113 148 78z"/>
</g>
</svg>
